<?xml version="1.0" standalone="no"?>
<!DOCTYPE svg PUBLIC "-//W3C//DTD SVG 1.1//EN" "http://www.w3.org/Graphics/SVG/1.1/DTD/svg11.dtd" >
<svg xmlns="http://www.w3.org/2000/svg">
<metadata>
This is a custom SVG webfont generated by Font Squirrel.
Copyright   : MagnusEF
</metadata>
<defs>
<font id="MagnusEFRegular" horiz-adv-x="1024" >
<font-face units-per-em="2048" ascent="1638" descent="-410" />
<missing-glyph horiz-adv-x="471" />
<glyph unicode=" " horiz-adv-x="471" d="M0 0z" />
<glyph unicode="!" horiz-adv-x="512" d="M96 1366h320l-105 -985h-112zM102 135q0 61 45.5 104.5t110.5 43.5q61 0 105.5 -43t44.5 -105q0 -63 -44.5 -109t-105.5 -46q-66 0 -111 44.5t-45 110.5z" />
<glyph unicode="&#x22;" horiz-adv-x="794" d="M90 1366h258l-45 -549h-170zM449 1366h256l-43 -549h-173z" />
<glyph unicode="$" horiz-adv-x="886" d="M61 352q0 61 25 148h238q-43 -76 -43 -123q0 -72 44 -119t109 -47q68 0 113 45t45 113q0 102 -137 219l-162 135q-59 47 -100 98q-86 102 -87 230q0 123 83 213t198 94v115h107v-132q57 -23 110 -86v95h158v-426h-176l-5 20q-3 12 -3 14q-23 115 -54 160q-39 59 -102 60 q-39 0 -62.5 -29t-23.5 -74q0 -82 125 -192l143 -127l86 -74q135 -123 135 -301q0 -145 -92 -247.5t-239 -123.5v-131h-107v129q-145 18 -235.5 112.5t-90.5 231.5z" />
<glyph unicode="%" horiz-adv-x="1243" d="M35 1020q0 164 76.5 266.5t197.5 102.5t195 -99.5t74 -263.5q0 -166 -77 -269.5t-200 -103.5q-115 0 -190.5 103.5t-75.5 263.5zM176 45l805 1321l86 -51l-803 -1323zM225 1010q0 -207 82 -207t82 227q0 215 -82 215.5t-82 -235.5zM664 336q0 162 76.5 267.5t197.5 105.5 t195.5 -103.5t74.5 -269.5q0 -162 -75.5 -262.5t-198.5 -100.5q-121 0 -195.5 100.5t-74.5 262.5zM856 326q0 -209 80 -209q33 0 53.5 39t24.5 104l4 72l-2 84q-4 147 -78 147q-82 1 -82 -237z" />
<glyph unicode="&#x26;" d="M49 354q0 174 158 381l47 60l18 26q-2 4 -7 12.5t-7 12.5q-35 61 -51 90q-51 96 -51 192q0 123 77.5 204t192.5 81t192.5 -78t77.5 -192q0 -117 -80 -230l-45 -67l-28 -41l139 -221q6 33 12 96q4 45 4 82h283v-178h-100q-10 -125 -64 -240l64 -100q33 -57 73 -58 q6 0 27 4v-165q-61 -47 -125 -48q-74 0 -121 60q-25 33 -39 61q-2 2 -7 11.5t-7 15.5q-139 -147 -283 -148q-145 0 -247.5 110.5t-102.5 266.5zM305 369q0 -68 38 -111t97 -43q80 0 140 88l-181 307q-10 -14 -20 -32.5t-14 -22.5q-60 -98 -60 -186zM369 1157q0 -49 57 -147 q4 6 9 13t8 11t6.5 9.5t5.5 9.5q39 61 39 100q0 31 -18.5 52.5t-43.5 21.5q-27 0 -45 -20.5t-18 -49.5z" />
<glyph unicode="'" horiz-adv-x="438" d="M90 1366h258l-45 -549h-170z" />
<glyph unicode="(" horiz-adv-x="620" d="M82 508q0 264 113 534q59 143 170 324h153q-68 -166 -98 -274q-82 -291 -82 -580q0 -406 180 -854h-153l-21 33q-102 170 -166 332q-96 249 -96 485z" />
<glyph unicode=")" horiz-adv-x="620" d="M102 -342q59 145 99 274q82 291 82 580q0 406 -181 854h154l18 -33q109 -178 168 -332q96 -250 97 -485q0 -264 -113 -534q-59 -143 -170 -324h-154z" />
<glyph unicode="*" horiz-adv-x="915" d="M82 1065l49 147l248 -79v260h156v-260l249 79l50 -147l-248 -80l153 -213l-129 -94l-153 213l-152 -213l-129 94l154 213z" />
<glyph unicode="," horiz-adv-x="479" d="M80 150q0 68 42 110.5t107 42.5q70 0 115 -50t45 -128q0 -84 -53 -188q-35 -66 -103 -152h-90q33 59 52 96q20 47 20 84q0 33 -39 51l-41 21q-55 35 -55 113z" />
<glyph unicode="-" horiz-adv-x="350" d="M0 436v191h350v-191h-350z" />
<glyph unicode="." horiz-adv-x="479" d="M82 131.5q0 63.5 46 109.5t109.5 46t107.5 -45t44 -108.5t-44 -110t-107.5 -46.5t-109.5 45.5t-46 109z" />
<glyph unicode="/" horiz-adv-x="903" d="M0 -272l641 1638h195l-623 -1638h-213z" />
<glyph unicode="0" horiz-adv-x="1021" d="M57 690q0 317 125 508t332 191q201 0 326 -188.5t125 -493.5q0 -338 -123 -534t-334 -196q-209 0 -330 191.5t-121 521.5zM324 686q0 -233 49 -361t137 -128q90 0 141 133t51 375q0 229 -51 358t-141 129t-138 -131t-48 -375z" />
<glyph unicode="1" horiz-adv-x="583" d="M82 0v176h100v866q-10 -8 -47 -28q-10 -4 -20 -10l-11 -5q-12 -4 -22 -8v193q55 31 84 53q25 18 47 47q29 37 43 96h172v-1204h100v-176h-446z" />
<glyph unicode="2" horiz-adv-x="894" d="M57 0q0 156 25 262q10 53 39 121q53 121 184 254q113 115 146.5 156t68.5 100q41 63 41 135q0 66 -33.5 109t-87.5 43q-55 0 -88 -40t-33 -106q0 -72 35 -139h-241q-27 72 -27 143q0 152 103.5 251.5t261.5 99.5q156 0 258 -102.5t102 -258.5q0 -193 -209 -418l-110 -123 q-115 -127 -134 -170q-25 -55 -30 -129h112q84 0 125 13q33 12 48.5 42.5t23.5 96.5l8 72l4 34h170v-446h-762z" />
<glyph unicode="3" horiz-adv-x="868" d="M39 369q0 72 24 157h238q-23 -88 -22 -145q0 -84 43 -139.5t108 -55.5q72 0 115 63.5t43 170.5q0 125 -72 197.5t-192 72.5h-23v152l195 336h-80q-92 0 -120 -25t-34 -111l-6 -59l-2 -45h-168v428h676v-188l-209 -336q66 -20 115 -51q78 -53 125 -156t47 -223 q0 -193 -116 -314t-298 -121q-174 0 -280.5 108t-106.5 284z" />
<glyph unicode="4" horiz-adv-x="929" d="M55 293v237l371 836h336v-872h98v-201h-98v-115h98v-178h-463v178h117v115h-459zM293 494h221v550z" />
<glyph unicode="5" horiz-adv-x="931" d="M68 367q0 66 22 137h234q-20 -74 -21 -123q0 -82 44 -137.5t110 -55.5q78 0 121 74t43 207q0 135 -48.5 211t-136.5 76t-133 -92h-213l86 702h612v-281h-176v84h-223l-27 -247q76 37 146 36q154 0 258 -143t104 -350q0 -221 -115.5 -360.5t-299.5 -139.5 q-170 0 -278.5 113t-108.5 289z" />
<glyph unicode="6" horiz-adv-x="937" d="M51 678q0 182 41 340q33 131 96 225q49 70 134.5 114t175.5 44q154 0 253 -104.5t99 -264.5v-49h-244q6 37 6 49q0 70 -33.5 113t-89.5 43q-76 0 -123 -85t-47 -222v-33q86 80 201 80q162 0 267.5 -131t105.5 -332q0 -217 -112.5 -352.5t-293.5 -135.5 q-209 0 -322.5 182.5t-113.5 518.5zM326 469q0 -125 43 -196.5t118 -71.5q70 0 114 68.5t44 176.5q0 127 -45 204t-121 77q-72 0 -112.5 -69.5t-40.5 -188.5z" />
<glyph unicode="7" horiz-adv-x="811" d="M53 940v426h744q-2 -90 -11 -147q-25 -150 -110 -322l-76 -149q-127 -254 -127 -451q0 -74 8 -121h103v-176h-451v176h92q0 68 8 172q10 102 21 150q31 152 121 323l78 144q59 113 77 206h-116h-74q-12 0 -37 -4q-33 -10 -49 -39.5t-21 -91.5q0 -4 -3 -37.5t-5 -58.5 h-172z" />
<glyph unicode="8" horiz-adv-x="901" d="M45 406q0 111 39 184.5t133 138.5q-141 106 -141 289q0 162 103.5 266.5t267 104.5t267 -102.5t103.5 -266.5q0 -104 -53 -191q-18 -33 -70 -81l-18 -19q84 -39 132 -127t48 -205q0 -184 -114.5 -302t-293 -118t-291 120.5t-112.5 308.5zM297 399q0 -98 45 -161.5 t113 -63.5q63 0 105 63.5t42 161.5q0 102 -41 165t-110.5 63t-111.5 -62t-42 -166zM322 1010q0 -78 36.5 -131.5t90 -53.5t88 53.5t34.5 133.5q0 82 -34.5 133t-90.5 51q-57 0 -90.5 -50t-33.5 -136z" />
<glyph unicode="9" horiz-adv-x="944" d="M55 913q0 209 112 342.5t286 133.5q207 0 325.5 -186.5t118.5 -512.5q0 -334 -119 -523.5t-325 -189.5q-158 0 -256.5 108t-98.5 277q0 4 1 18.5t1 27.5h242q-6 -39 -6 -52q0 -70 35 -113.5t88 -43.5q74 0 123 88t49 219q0 4 -1 17.5t-1 21.5q-92 -84 -201 -84 q-162 0 -267.5 128.5t-105.5 323.5zM301 938q0 -123 46 -199.5t120 -76.5q72 0 114 68.5t42 184.5v27q-6 117 -48.5 182.5t-111.5 65.5q-74 0 -118 -68.5t-44 -183.5z" />
<glyph unicode=":" horiz-adv-x="479" d="M82 131.5q0 63.5 46 109.5t109.5 46t107.5 -45t44 -108.5t-44 -110t-107.5 -46.5t-109.5 45.5t-46 109zM82 727q0 63 45 109.5t111 46.5q63 0 107 -44t44 -108q0 -66 -44 -111t-107.5 -45t-109.5 45.5t-46 106.5z" />
<glyph unicode=";" horiz-adv-x="479" d="M80 150q0 68 42 110.5t107 42.5q70 0 115 -50t45 -128q0 -84 -53 -188q-35 -66 -103 -152h-90q33 59 52 96q20 47 20 84q0 33 -39 51l-41 21q-55 35 -55 113zM82 727q0 63 45 109.5t111 46.5q63 0 107 -44t44 -108q0 -66 -44 -111t-107.5 -45t-109.5 45.5t-46 106.5z" />
<glyph unicode="?" horiz-adv-x="858" d="M55 1036q0 147 106.5 248.5t262.5 101.5q147 0 257 -108.5t110 -253.5q0 -49 -15 -98q-25 -86 -78 -158q-4 -6 -96 -127q-47 -61 -84 -131q-27 -51 -39 -133h-174q10 135 68 229l71 117q20 31 60 106q53 109 53 181q0 74 -35 121t-92 47q-55 0 -95 -45.5t-40 -108.5 q0 -47 49 -168h-250q-39 106 -39 180zM246 135q0 59 45 102.5t108 43.5q61 0 104.5 -43t45.5 -103q0 -66 -44 -110.5t-107.5 -44.5t-107.5 44.5t-44 110.5z" />
<glyph unicode="A" horiz-adv-x="1005" d="M6 0v176h84l252 1190h330l243 -1190h84v-176h-458v176h112l-26 148h-285l-25 -148h117v-176h-428zM381 512h211l-105 573z" />
<glyph unicode="B" horiz-adv-x="976" d="M51 0v178h101v1012h-101v176h379q180 0 281 -53q68 -37 107.5 -110t39.5 -161q0 -188 -192 -276q250 -86 249 -352q0 -197 -113.5 -305.5t-318.5 -108.5h-432zM397 178h27q111 0 170 64.5t59 181.5q0 115 -60.5 177.5t-172.5 62.5h-23v-486zM397 854q16 -2 35 -2 q186 0 186 162q0 82 -49 125q-45 37 -145 37h-27v-322z" />
<glyph unicode="C" horiz-adv-x="907" d="M57 677.5q0 323.5 107.5 517.5t286.5 194q121 0 211 -109v86h174v-457h-195q-18 158 -53 224.5t-101 66.5q-72 0 -104 -72q-66 -137 -66 -423q0 -242 47.5 -378.5t133.5 -136.5q88 0 116 115q18 72 27 225h229q-6 -133 -22 -221q-27 -152 -127 -242t-240 -90 q-195 0 -309.5 188.5t-114.5 512z" />
<glyph unicode="D" horiz-adv-x="1026" d="M51 0v180h101v1008h-101v178h346q18 0 48 -1t42 -1q154 -10 277 -119q205 -188 205 -561q0 -322 -151.5 -503t-420.5 -181h-346zM397 180q82 2 125 21.5t82 70.5q104 137 105 410q0 236 -78 371t-211 135h-23v-1008z" />
<glyph unicode="E" horiz-adv-x="968" d="M51 0v184h101v1002h-101v180h860v-442h-163l-5 34l-6 74q-6 86 -39 113q-27 27 -166 26h-133v-383l23 3q57 2 73.5 22.5t26.5 101.5q0 6 4 26t6 34h148v-565h-148l-4 26l-6 62q-4 33 -10 63q-8 23 -25 37q-14 12 -59 12h-4h-25v-426h133q94 0 119 4q43 8 60.5 43 t25.5 131q8 86 11 111h163v-473h-860z" />
<glyph unicode="F" horiz-adv-x="952" d="M51 0v178h101v1010h-101v178h846v-448h-164l-2 28l-10 90q-8 88 -53 121q-20 14 -95 14l-73 3h-101v-386q6 0 16.5 1.5t12.5 1.5q45 4 57.5 22t26.5 105q0 4 4 22t6 33h146v-582h-146l-4 27l-10 69q-8 61 -14.5 80t-20.5 29q-16 14 -74 14v-432h140v-178h-488z" />
<glyph unicode="G" horiz-adv-x="962" d="M57 681.5q0 319.5 106.5 513.5t282.5 194q123 0 211 -111v88h179v-438h-179q-14 98 -20 123q-35 150 -133 149q-184 0 -185 -520q0 -231 47.5 -356t133.5 -125q158 0 157 354v41h-192v184h446q-2 -197 -14 -300t-41 -206q-41 -143 -134 -219t-226 -76q-199 0 -319 192.5 t-120 512z" />
<glyph unicode="H" horiz-adv-x="1079" d="M51 0v176h101v1010h-101v180h445v-180h-101v-381h289v381h-100v180h444v-180h-100v-1010h100v-176h-444v176h100v438h-289v-438h101v-176h-445z" />
<glyph unicode="I" horiz-adv-x="573" d="M63 0v176h101v1010h-101v180h445v-180h-98v-1010h98v-176h-445z" />
<glyph unicode="J" horiz-adv-x="575" d="M0 16v189q57 -14 90 -15q45 0 74 33q23 23 29 57.5t6 127.5v782h-101v176h445v-176h-99v-782q0 -25 -1 -62t-1 -49q-2 -158 -67 -231q-76 -88 -211 -89q-70 0 -164 39z" />
<glyph unicode="K" horiz-adv-x="1019" d="M51 0v178h101v1010h-101v178h449v-178h-101v-397l244 397h-88v178h414v-178h-84l-197 -309l197 -570q23 -66 41 -90t43 -24q10 0 37 8v-203q-63 -20 -119 -20q-86 0 -135.5 48t-92.5 175l-145 420l-115 -174v-271h136v-178h-484z" />
<glyph unicode="L" horiz-adv-x="872" d="M51 0v188h101v1002h-101v176h496v-176h-148v-1002h72q100 0 133 23q29 20 41 69.5t23 196.5h174v-477h-791z" />
<glyph unicode="M" horiz-adv-x="1370" d="M51 0v180h101v1008h-101v178h453l147 -711q4 -18 12.5 -59t10.5 -47q8 -61 12 -96q2 14 12 82l7 38l18 82l162 711h432v-178h-98v-1008h98v-180h-412v180h86v604q0 80 2 136q0 47 2 84q-8 -59 -16 -107q-27 -147 -41 -211l-154 -686h-223l-164 764q-6 31 -12 55 q-14 82 -20 133l-7 47l2 -47q2 -39 2 -116v-84v-572h80v-180h-391z" />
<glyph unicode="N" horiz-adv-x="1046" d="M51 0v178h101v1010h-101v178h357l241 -690q4 -10 11.5 -32.5t12.5 -41t9 -31.5q14 -57 25 -116q-4 53 -7 75q0 33 -2 66v55v537h-104v178h414v-178h-101v-1188h-260l-239 672q0 2 -15 47q-18 72 -28 119q0 4 -4.5 18t-6.5 27q4 -53 4 -58q4 -86 4 -147v-500h103v-178 h-414z" />
<glyph unicode="O" d="M57 690q0 317 125 506.5t334 189.5q201 0 326 -190t125 -498q0 -334 -123 -527.5t-334 -193.5t-332 190.5t-121 522.5zM324 668q0 -225 49 -350t139 -125t141.5 133t51.5 370q0 229 -50.5 357.5t-140.5 128.5q-190 0 -190 -514z" />
<glyph unicode="P" horiz-adv-x="962" d="M51 0v178h101v1012h-101v176h348q133 0 199 -16.5t139 -65.5q190 -135 191 -391q0 -213 -142 -348q-72 -70 -158.5 -98.5t-228.5 -28.5v-240h142v-178h-490zM399 608h21q119 0 184.5 78t65.5 217q0 117 -62 205q-33 45 -76 61.5t-133 20.5v-582z" />
<glyph unicode="Q" d="M57 686q0 319 124 511t331 192q209 0 332 -190.5t123 -514.5q0 -346 -148 -522q-37 -45 -102 -96q111 -45 147 -101q41 -57 51 -151h-260q-6 88 -35.5 121.5t-107.5 44.5q-109 12 -141.5 23t-87.5 56q-109 90 -167.5 252t-58.5 375zM322 688q0 -498 188 -498 q92 0 141 129.5t49 368.5q0 231 -49 362.5t-137 131.5q-90 0 -141 -130.5t-51 -363.5z" />
<glyph unicode="R" horiz-adv-x="1001" d="M51 0v180h101v1000h-101v186h398q180 0 276 -49q96 -51 151.5 -147.5t55.5 -217.5q0 -242 -209 -358l147 -309q29 -57 47.5 -79t43.5 -22q12 0 30 11v-195q-72 -27 -127 -27q-66 0 -107.5 31t-76.5 107l-197 436h-84v-367h140v-180h-488zM399 739l47 -2q102 0 152 33 q80 59 80 186q0 223 -223 224h-56v-441z" />
<glyph unicode="S" horiz-adv-x="911" d="M45 338q0 66 27 156h254q-47 -84 -47 -132q0 -74 47 -123t118 -49q74 0 122 46.5t48 117.5q0 109 -147 230l-174 141q-66 53 -109 102q-92 104 -92 240q0 133 93.5 227.5t224.5 94.5q125 0 219 -109v98h170v-444h-191l-5 20q-3 12 -3 17q-25 115 -57 166q-43 63 -111 63 q-41 0 -67.5 -30.5t-26.5 -75.5q0 -47 30.5 -92.5t104.5 -110.5l156 -131l90 -78q147 -125 147 -315q0 -166 -119.5 -278t-300.5 -112q-174 0 -287.5 101.5t-113.5 259.5z" />
<glyph unicode="T" horiz-adv-x="903" d="M31 922v444h841v-444h-163l-7 59l-8 72q-6 66 -30 94q-20 20 -89 24v-993h109v-178h-471v178h115v993h-21q-53 0 -73.5 -30.5t-28.5 -122.5l-6 -64l-2 -32h-166z" />
<glyph unicode="U" horiz-adv-x="1011" d="M33 1192v174h444v-174h-100v-741q0 -20 1 -49t1 -37q0 -51 18 -95q14 -35 48 -57.5t75 -22.5q43 0 78 24t51 60q14 43 15 86v101v731h-97v174h412v-174h-100v-754q0 -156 -27 -231q-33 -104 -127 -167t-217 -63q-172 0 -277 111q-51 51 -73 125q-25 72 -25 236v743h-100z " />
<glyph unicode="V" horiz-adv-x="983" d="M-6 1188v178h461v-178h-119l145 -713q2 -12 4 -25.5t4.5 -20.5t2.5 -9q0 -4 3 -18.5t5 -26.5q4 -23 10 -88q6 61 8 84q8 41 10 53t5.5 29.5t3.5 23.5l137 711h-113v178h426v-178h-82l-254 -1188h-315l-258 1188h-84z" />
<glyph unicode="W" horiz-adv-x="1380" d="M-6 1190v176h448v-176h-112l88 -551q2 -10 14 -113q8 -74 10 -125q4 57 4 64q4 10 7 55q6 59 8 66l8 53l98 727h283l96 -713q10 -76 21 -207l4 -61q6 94 10 133q2 12 8 57.5t10 73.5l80 541h-110v176h417v-176h-90l-188 -1190h-299l-88 627q-4 18 -6 55q-2 23 -5 54.5 t-3 39.5q-2 39 -9 148q-4 -74 -12 -164q-2 -27 -6 -66t-8 -65l-88 -629h-295l-207 1190h-88z" />
<glyph unicode="X" horiz-adv-x="925" d="M0 0v176h96l226 526l-226 484h-80v180h430v-180h-84l123 -273l117 273h-88v180h393v-180h-88l-217 -484l238 -526h86v-176h-441v176h86l-125 309l-124 -309h81v-176h-403z" />
<glyph unicode="Y" horiz-adv-x="933" d="M-6 1186v180h428v-180h-96l149 -428l152 428h-95v180h406v-180h-82l-264 -684v-324h110v-178h-466v178h108v324l-264 684h-86z" />
<glyph unicode="Z" horiz-adv-x="843" d="M51 0q2 190 23 287q16 90 69 196q45 86 93 156q8 10 40.5 58t61.5 89q82 119 120 198t52 163l4 24h-88q-94 0 -127 -18q-23 -16 -33 -49t-16 -117l-6 -65h-164v444h713q0 -12 -1 -27.5t-2.5 -25.5t-1.5 -17q-16 -203 -92 -368q-37 -78 -78 -142q-29 -53 -71 -116 q-10 -12 -82 -119q-55 -76 -82 -129q-43 -80 -55 -133q-12 -49 -17 -99h119q117 0 143 27q18 16 25 37q14 37 23 119l4 67l6 35h162v-475h-742z" />
<glyph unicode="[" horiz-adv-x="608" d="M137 -342v1708h369v-168h-137v-1372h137v-168h-369z" />
<glyph unicode="\" d="M55 1536h226l653 -1706h-225z" />
<glyph unicode="]" horiz-adv-x="608" d="M102 -174h138v1372h-138v168h369v-1708h-369v168z" />
<glyph unicode="_" d="M0 -106h1024v-209h-1024v209z" />
<glyph unicode="`" d="M285 1397h182l137 -324h-155z" />
<glyph unicode="a" horiz-adv-x="839" d="M39 342q0 150 88 250t217 100q59 0 145 -45v21v34q0 70 -19 99.5t-64 29.5q-63 0 -93 -79h-225q20 123 102 187.5t218 64.5q156 0 243 -89q37 -37 51 -77q14 -31 16.5 -58.5t2.5 -132.5v-342l2 -55q0 -72 47 -72q12 0 39 17v-170q-61 -45 -115 -45q-80 0 -141 94 q-92 -94 -215 -94q-129 0 -214 103t-85 259zM272 342q0 -80 32 -127t85 -47q51 0 84 49t33 125q0 78 -32 126t-85 48t-85 -46t-32 -128z" />
<glyph unicode="b" horiz-adv-x="892" d="M39 31v176q27 -16 43 -17q25 0 34 24t9 85v897h-86v170h326v-434q72 72 163 72q139 0 229.5 -144.5t90.5 -367.5q0 -233 -91 -372.5t-243 -139.5q-127 0 -215 112q-55 -113 -139 -112q-55 0 -121 51zM352 496q0 -145 34 -226.5t93 -81.5q55 0 89 85t34 227 q0 311 -125 311q-59 0 -92 -82.5t-33 -232.5z" />
<glyph unicode="c" horiz-adv-x="745" d="M45 496q0 219 90 363.5t227 144.5q84 0 164 -91v66h179v-344h-179q-14 94 -39.5 135t-72.5 41q-57 0 -91 -86t-34 -229q0 -147 32.5 -233.5t88.5 -86.5q102 0 102 230h209v-31q0 -182 -85 -288.5t-230 -106.5q-160 0 -260.5 143.5t-100.5 372.5z" />
<glyph unicode="d" horiz-adv-x="884" d="M43 496q0 221 91 364.5t233 143.5q92 0 161 -68v252h-86v178h324v-977v-96q0 -102 47 -103q14 0 41 13v-172q-74 -51 -121 -51q-82 0 -139 114q-35 -43 -64 -63q-70 -51 -155 -51q-150 0 -241 141.5t-91 374.5zM289 503.5q0 -145.5 34.5 -229.5t94.5 -84q51 0 84 72 t39 201v41q0 311 -129 311q-57 0 -90 -83t-33 -228.5z" />
<glyph unicode="e" horiz-adv-x="811" d="M45 496q0 227 98.5 367.5t259.5 140.5q178 0 277 -166q84 -135 86 -389h-481q10 -285 127 -285q47 0 77.5 52t30.5 132v17h234q-4 -182 -92.5 -283.5t-243.5 -101.5q-176 0 -274.5 137t-98.5 379zM295 621h227q-8 104 -35.5 150t-83.5 46q-102 1 -108 -196z" />
<glyph unicode="f" horiz-adv-x="507" d="M39 0v166h88v649h-88v166h88v102q0 84 5 118t26 73q27 47 77 76.5t107 29.5t143 -43v-174q-43 18 -59 19q-63 0 -64 -117v-84h123v-166h-123v-649h87v-166h-410z" />
<glyph unicode="g" horiz-adv-x="884" d="M45 483q0 219 100.5 360.5t255.5 141.5q82 0 144 -43q27 -18 59 -55q57 86 144 86q49 0 108 -41v-164q-18 25 -39 25q-23 0 -33 -21q-14 -25 -14 -127v-604q0 -123 -10 -174t-45 -111q-88 -150 -293 -149q-152 0 -247 95t-97 245h239q10 -72 25 -97q29 -53 88 -53 q29 0 56.5 18.5t37.5 47.5q12 35 13 100v111q-72 -78 -162 -78q-143 0 -236.5 137t-93.5 350zM291 473q0 -133 34.5 -209t94.5 -76q129 0 129 306q0 137 -36 218t-95 81q-57 0 -92 -88.5t-35 -231.5z" />
<glyph unicode="h" horiz-adv-x="903" d="M39 0v168h86v1026h-86v172h321v-453q72 90 181 91q100 0 172 -72q43 -47 57 -98q14 -45 14 -213v-302v-63q0 -41 15.5 -67.5t40.5 -26.5q4 0 30 6v-154q-68 -35 -129 -34q-104 0 -151 73q-27 47 -33 99q-8 51 -8 184v250v63q0 143 -90 144q-63 0 -84 -68 q-14 -45 -15 -162v-395h89v-168h-410z" />
<glyph unicode="i" horiz-adv-x="477" d="M39 0v166h86v651h-86v166h319v-817h86v-166h-405zM88 1224.5q0 59.5 43 100.5t105 41q59 0 100 -42t41 -101q0 -61 -43 -105q-41 -41 -99 -41h-6q-59 2 -100 45t-41 102.5z" />
<glyph unicode="j" horiz-adv-x="430" d="M-23 -137q31 -16 56 -17q29 0 43 17q16 18 20 42.5t4 112.5v797h-88v166h322v-918v-147q0 -133 -53 -199q-63 -74 -170 -73q-66 0 -134 34v185zM59 1217q0 61 44 105t106 44q57 0 98 -40t43 -99q0 -61 -42 -105.5t-99 -44.5q-61 0 -105.5 41.5t-44.5 98.5z" />
<glyph unicode="k" horiz-adv-x="864" d="M39 0v166h86v1030h-86v170h319v-739l146 188h-68v166h377v-166h-76l-129 -160l129 -362q29 -76 56 -96q10 -8 32 -9h13h16v-161q-72 -39 -125 -39q-121 0 -164 123l-33 94l-96 262l-78 -102v-199h78v-166h-397z" />
<glyph unicode="l" horiz-adv-x="479" d="M39 0v164h86v1030h-86v172h321v-1202h86v-164h-407z" />
<glyph unicode="m" horiz-adv-x="1282" d="M39 0v168h86v647h-86v168h319v-68q74 88 177 89q98 0 178 -89q94 88 200 89q123 0 199 -105q33 -47 42 -93t9 -151v-331v-72q0 -90 58 -90q10 0 28 6v-154q-70 -35 -143 -34q-102 0 -150 88q-18 35 -23 71.5t-5 139.5v282l-2 103q0 125 -78 124q-55 0 -72 -55 q-12 -41 -12 -172v-237l2 -60q0 -96 43 -96q12 0 27 4v-158q-70 -35 -121 -34q-68 0 -119 40q-39 37 -55 93q-12 47 -13 100v88v274v82q-2 76 -19 107t-58 31q-66 0 -84 -70q-8 -39 -9 -150v-407h95v-168h-414z" />
<glyph unicode="n" horiz-adv-x="899" d="M39 0v166h88v651h-88v166h321v-65q70 86 175 86q117 0 188 -91q33 -39 47 -92q10 -51 10 -198v-310q0 -92 8 -118q6 -37 43 -37q14 0 37 8v-166q-68 -20 -131 -20q-55 0 -101 29.5t-67 76.5q-16 39 -20 104v117v279q0 106 -10 141q-14 63 -78 64q-53 0 -77 -47.5 t-24 -155.5v-422h84v-166h-405z" />
<glyph unicode="o" horiz-adv-x="817" d="M43 489q0 231 100.5 373t266.5 142q162 0 260 -131.5t102 -354.5v-22q0 -231 -100.5 -373.5t-263.5 -142.5q-162 0 -263.5 141t-101.5 368zM291 483q0 -152 30.5 -235.5t86.5 -83.5q53 0 85.5 91t32.5 245q0 150 -30.5 233.5t-85.5 83.5q-53 0 -86 -92t-33 -242z" />
<glyph unicode="p" horiz-adv-x="890" d="M39 -174h88v993h-88v164h301v-92q51 63 92 88t98 25q137 0 227.5 -143.5t90.5 -364.5q0 -225 -91 -370.5t-233 -145.5q-88 0 -164 77v-231h107v-164h-428v164zM346 500q0 -150 35 -234t96 -84q57 0 91 86t34 232v20q-6 289 -127 289q-61 0 -95 -81t-34 -228z" />
<glyph unicode="q" horiz-adv-x="884" d="M45 492q0 225 90 368.5t234 143.5q70 0 125 -50q27 -25 57 -63v90h301v-166h-88v-989h88v-164h-426v164h104v229q-78 -76 -159 -75q-141 0 -233.5 144.5t-92.5 367.5zM291 504q0 -154 33.5 -238t95.5 -84q125 0 125 332q0 139 -33 217t-92 78q-61 0 -95 -80t-34 -225z " />
<glyph unicode="r" horiz-adv-x="608" d="M39 0v166h86v649h-86v168h317v-131q63 145 228 164v-256h-21q-68 0 -121 -35t-69.5 -84t-16.5 -166v-309h99v-166h-416z" />
<glyph unicode="s" horiz-adv-x="729" d="M33 248q0 59 28 123h215q-31 -55 -30 -95q0 -45 29.5 -73.5t76.5 -28.5q45 0 75 29.5t30 75.5q0 39 -23.5 67.5t-87.5 65.5q-166 96 -215 147q-70 70 -70 178q0 115 69 191t173 76q94 0 166 -80v59h168v-311h-168q-41 150 -129 149q-27 0 -44 -18.5t-17 -46.5 q0 -53 90 -105q145 -86 227 -153q92 -80 92 -209q0 -133 -98 -221t-248 -88q-131 0 -220 76.5t-89 191.5z" />
<glyph unicode="t" horiz-adv-x="512" d="M20 815v168h89v127l233 186v-313h129v-168h-129v-414q0 -158 20 -188q14 -27 50 -27q23 0 59 19v-176q-84 -43 -149 -43q-137 0 -191 108q-20 43 -22 101v118v502h-89z" />
<glyph unicode="u" horiz-adv-x="892" d="M31 817v166h321v-545q0 -158 8 -188q16 -61 82 -62q63 0 84 58q12 33 13 153v418h-86v166h321v-600q0 -109 2 -133q4 -63 45 -64q4 0 7 1t12.5 2t21.5 4v-166q-66 -37 -119 -37q-82 0 -139 88q-98 -98 -219 -98q-119 0 -192.5 74.5t-73.5 195.5v94v473h-88z" />
<glyph unicode="v" horiz-adv-x="837" d="M-6 815v166h403v-166h-80l80 -360q2 -8 5.5 -21.5t6.5 -33t7 -33.5q10 -61 14 -115q2 33 6 53q8 63 27 146l80 364h-78v166h377v-166h-80l-195 -815h-301l-184 815h-88z" />
<glyph unicode="w" horiz-adv-x="1214" d="M-6 815v166h399v-166h-96l70 -313l12 -70l8 -43l6 -49q6 55 13 94l12 64l90 483h235l88 -506q4 -12 11 -65q6 -33 10 -86q4 49 4 53q4 12 6 31q2 14 6 34.5t4 28.5l70 344h-90v166h369v-166h-74l-178 -815h-264l-78 457q-8 41 -17 145q-8 -94 -18 -143l-84 -459h-264 l-176 815h-74z" />
<glyph unicode="x" horiz-adv-x="733" d="M-2 0v166h76l170 338l-152 309h-76v168h250l115 -248l113 248h219v-168h-72l-162 -309l178 -338h78v-166h-256l-129 274l-135 -274h-217z" />
<glyph unicode="y" horiz-adv-x="811" d="M-10 811v168h268l131 -395l17 -52q6 -16 12 -43q10 -37 14 -77q4 45 10 65l13 45l10 39l72 250h-101v168h385l-307 -1022q-49 -166 -88 -223q-61 -88 -184 -88q-59 0 -119 24v189q37 -14 55 -15q37 0 60.5 31t44.5 102l39 129l-250 705h-82z" />
<glyph unicode="z" horiz-adv-x="702" d="M31 0q0 68 12 152q14 113 49 184.5t131 191.5q111 137 142 193q18 35 24 82h-141v-94h-176v270h587v-29q0 -37 -6 -84q-12 -96 -45 -167.5t-119 -182.5q-127 -168 -147 -205q-33 -55 -47 -131h186v119h178v-299h-628z" />
<glyph unicode="&#xa0;" horiz-adv-x="681" d="M0 0z" />
<glyph unicode="&#xa1;" horiz-adv-x="512" d="M96 0l103 983h112l105 -983h-320zM104 1231q0 63 44.5 109t105.5 46q66 0 111 -46t45 -109q0 -61 -46.5 -105.5t-111.5 -44.5q-61 0 -104.5 44.5t-43.5 105.5z" />
<glyph unicode="&#xa2;" horiz-adv-x="780" d="M76 686q0 201 82 336t207 137v115h94v-139q29 -18 65 -60v60h164v-318h-164q-14 88 -37.5 125t-66.5 37q-53 0 -85 -80t-32 -213q0 -137 29.5 -217t81.5 -80q96 0 96 215h195v-31q0 -152 -66 -249t-180 -113v-121h-94v119q-129 20 -209 152t-80 325z" />
<glyph unicode="&#xa3;" horiz-adv-x="876" d="M61 16v240q37 -20 62 -20q53 0 86 58t33 152q0 59 -19 134l-8 24h-154v189h103l-8 32q-47 170 -47 236q0 137 106.5 233.5t259.5 96.5q158 0 253 -94.5t95 -249.5q0 -35 -8 -101h-229q10 45 10 76q0 70 -35 114t-90 44q-47 0 -80 -37t-33 -90q0 -45 11 -78l20 -90l17 -92 h180v-189h-146q4 -29 4 -59q0 -66 -16 -137q-14 -61 -57 -152q68 -51 141 -51q61 0 87 30.5t42 126.5l21 121h153v-483h-178q-133 0 -180 14q-80 20 -140 92q-80 -109 -176 -108q-33 0 -80 18z" />
<glyph unicode="&#xa5;" horiz-adv-x="1017" d="M45 1186v180h428v-180h-100l153 -443l156 443h-100v180h407v-180h-84l-194 -506h149v-133h-201l-18 -45v-64h219v-139h-219v-121h113v-178h-469v178h110v121h-221v139h221v64l-18 45h-203v133h150l-193 506h-86z" />
<glyph unicode="&#xa8;" d="M211 1231q0 49 37 84t90 35t90 -37t37 -88q0 -53 -37 -90t-88 -37q-53 0 -91 39t-38 94zM559 1223q0 53 37 91t88 38q53 0 91 -37t38 -90q0 -51 -37 -88t-90 -37t-90 36t-37 87z" />
<glyph unicode="&#xaa;" horiz-adv-x="839" d="M39 342q0 150 88 250t217 100q59 0 145 -45v21v34q0 70 -19 99.5t-64 29.5q-63 0 -93 -79h-225q20 123 102 187.5t218 64.5q156 0 243 -89q37 -37 51 -77q14 -31 16.5 -58.5t2.5 -132.5v-342l2 -55q0 -72 47 -72q12 0 39 17v-170q-61 -45 -115 -45q-80 0 -141 94 q-92 -94 -215 -94q-129 0 -214 103t-85 259zM272 342q0 -80 32 -127t85 -47q51 0 84 49t33 125q0 78 -32 126t-85 48t-85 -46t-32 -128z" />
<glyph unicode="&#xab;" horiz-adv-x="778" d="M55 522l209 385h148l-148 -385l148 -381h-148zM352 522l207 385h152l-152 -385l152 -381h-152z" />
<glyph unicode="&#xad;" horiz-adv-x="350" d="M0 436v191h350v-191h-350z" />
<glyph unicode="&#xb2;" horiz-adv-x="894" d="M57 0q0 156 25 262q10 53 39 121q53 121 184 254q113 115 146.5 156t68.5 100q41 63 41 135q0 66 -33.5 109t-87.5 43q-55 0 -88 -40t-33 -106q0 -72 35 -139h-241q-27 72 -27 143q0 152 103.5 251.5t261.5 99.5q156 0 258 -102.5t102 -258.5q0 -193 -209 -418l-110 -123 q-115 -127 -134 -170q-25 -55 -30 -129h112q84 0 125 13q33 12 48.5 42.5t23.5 96.5l8 72l4 34h170v-446h-762z" />
<glyph unicode="&#xb3;" horiz-adv-x="868" d="M39 369q0 72 24 157h238q-23 -88 -22 -145q0 -84 43 -139.5t108 -55.5q72 0 115 63.5t43 170.5q0 125 -72 197.5t-192 72.5h-23v152l195 336h-80q-92 0 -120 -25t-34 -111l-6 -59l-2 -45h-168v428h676v-188l-209 -336q66 -20 115 -51q78 -53 125 -156t47 -223 q0 -193 -116 -314t-298 -121q-174 0 -280.5 108t-106.5 284z" />
<glyph unicode="&#xb4;" d="M422 1073l135 324h182l-164 -324h-153z" />
<glyph unicode="&#xb7;" horiz-adv-x="368" d="M0 721q0 78 55.5 133t132.5 55q74 0 127.5 -54t53.5 -130q0 -78 -53.5 -132t-129 -54t-131 54t-55.5 128z" />
<glyph unicode="&#xb9;" horiz-adv-x="583" d="M82 0v176h100v866q-10 -8 -47 -28q-10 -4 -20 -10l-11 -5q-12 -4 -22 -8v193q55 31 84 53q25 18 47 47q29 37 43 96h172v-1204h100v-176h-446z" />
<glyph unicode="&#xba;" horiz-adv-x="817" d="M43 489q0 231 100.5 373t266.5 142q162 0 260 -131.5t102 -354.5v-22q0 -231 -100.5 -373.5t-263.5 -142.5q-162 0 -263.5 141t-101.5 368zM291 483q0 -152 30.5 -235.5t86.5 -83.5q53 0 85.5 91t32.5 245q0 150 -30.5 233.5t-85.5 83.5q-53 0 -86 -92t-33 -242z" />
<glyph unicode="&#xbb;" horiz-adv-x="778" d="M68 141l149 385l-149 381h149l209 -381l-209 -385h-149zM367 141l149 385l-149 381h149l207 -381l-207 -385h-149z" />
<glyph unicode="&#xbc;" horiz-adv-x="1583" d="M708 293v237l371 836h336v-872h98v-201h-98v-115h98v-178h-463v178h117v115h-459zM946 494h221v550zM172 45l805 1321l88 -51l-805 -1323zM82 0v176h100v866q-10 -8 -47 -28q-10 -4 -20 -10l-11 -5q-12 -4 -22 -8v193q55 31 84 53q25 18 47 47q29 37 43 96h172v-1204h100 v-176h-446z" />
<glyph unicode="&#xbd;" horiz-adv-x="1548" d="M710 0q0 156 25 262q10 53 39 121q53 121 184 254q113 115 146.5 156t68.5 100q41 63 41 135q0 66 -33.5 109t-87.5 43q-55 0 -88 -40t-33 -106q0 -72 35 -139h-241q-27 72 -27 143q0 152 103.5 251.5t261.5 99.5q156 0 258 -102.5t102 -258.5q0 -193 -209 -418 l-110 -123q-115 -127 -134 -170q-25 -55 -30 -129h112q84 0 125 13q33 12 48.5 42.5t23.5 96.5l8 72l4 34h170v-446h-762zM172 45l805 1321l88 -51l-805 -1323zM82 0v176h100v866q-10 -8 -47 -28q-10 -4 -20 -10l-11 -5q-12 -4 -22 -8v193q55 31 84 53q25 18 47 47 q29 37 43 96h172v-1204h100v-176h-446z" />
<glyph unicode="&#xbe;" horiz-adv-x="1867" d="M993 293v237l371 836h336v-872h98v-201h-98v-115h98v-178h-463v178h117v115h-459zM1231 494h221v550zM456 45l805 1321l88 -51l-805 -1323zM39 369q0 72 24 157h238q-23 -88 -22 -145q0 -84 43 -139.5t108 -55.5q72 0 115 63.5t43 170.5q0 125 -72 197.5t-192 72.5h-23 v152l195 336h-80q-92 0 -120 -25t-34 -111l-6 -59l-2 -45h-168v428h676v-188l-209 -336q66 -20 115 -51q78 -53 125 -156t47 -223q0 -193 -116 -314t-298 -121q-174 0 -280.5 108t-106.5 284z" />
<glyph unicode="&#xbf;" horiz-adv-x="858" d="M68 340q0 45 16 100q27 88 76 156q76 100 96 127q53 70 84 133q27 49 39 133h174q-10 -139 -68 -229l-71 -119q-29 -47 -58 -106q-55 -109 -55 -179q0 -76 36 -123t91 -47t95 45t40 109q0 55 -47 170h250q39 -115 39 -180q0 -150 -106.5 -250t-264.5 -100 q-147 0 -256.5 107.5t-109.5 252.5zM309 1229q0 66 44 111.5t107.5 45.5t107.5 -45t44 -110q0 -59 -45 -102.5t-108 -43.5q-61 0 -104.5 42.5t-45.5 101.5z" />
<glyph unicode="&#xc0;" horiz-adv-x="1005" d="M6 0v176h84l252 1190h330l243 -1190h84v-176h-458v176h112l-26 148h-285l-25 -148h117v-176h-428zM197 1804h235l240 -288h-205zM381 512h211l-105 573z" />
<glyph unicode="&#xc1;" horiz-adv-x="1005" d="M6 0v176h84l252 1190h330l243 -1190h84v-176h-458v176h112l-26 148h-285l-25 -148h117v-176h-428zM334 1516l239 288h236l-270 -288h-205zM381 512h211l-105 573z" />
<glyph unicode="&#xc2;" horiz-adv-x="1005" d="M6 0v176h84l252 1190h330l243 -1190h84v-176h-458v176h112l-26 148h-285l-25 -148h117v-176h-428zM147 1489l263 315h186l262 -315h-194l-160 188l-162 -188h-195zM381 512h211l-105 573z" />
<glyph unicode="&#xc3;" horiz-adv-x="1005" d="M6 0v176h84l252 1190h330l243 -1190h84v-176h-458v176h112l-26 148h-285l-25 -148h117v-176h-428zM231 1602q0 66 46.5 110.5t113.5 44.5q61 0 141 -43q39 -20 68 -20q12 0 25 12q12 10 12 25q0 10 -6 26h127q16 -39 16 -78q0 -66 -44 -110.5t-107 -44.5q-29 0 -52 8 q-8 2 -59 24q-70 31 -102 31q-14 0 -24.5 -9t-10.5 -22q0 -10 8 -28h-137q-15 41 -15 74zM381 512h211l-105 573z" />
<glyph unicode="&#xc4;" horiz-adv-x="1005" d="M6 0v176h84l252 1190h330l243 -1190h84v-176h-458v176h112l-26 148h-285l-25 -148h117v-176h-428zM182 1642q0 53 40 90t97 37q55 0 94.5 -38.5t39.5 -94.5q0 -57 -39 -96t-95 -39q-57 0 -97 41t-40 100zM381 512h211l-105 573zM553 1632q0 57 39 98.5t94 41.5 q57 0 97 -40t40 -95.5t-40 -95.5t-95 -40q-57 0 -96 39t-39 92z" />
<glyph unicode="&#xc5;" horiz-adv-x="1005" d="M6 0v176h84l252 1190h330l243 -1190h84v-176h-458v176h112l-26 148h-285l-25 -148h117v-176h-428zM303 1659q0 84 59.5 142.5t143.5 58.5q80 0 137 -57.5t59 -139.5q0 -84 -56 -144.5t-136 -60.5q-86 0 -146.5 58.5t-60.5 142.5zM381 512h211l-105 573zM428 1661 q0 -33 21.5 -54.5t54.5 -21.5q31 0 52.5 22.5t21.5 55.5q0 29 -21.5 50.5t-52.5 21.5q-33 0 -54.5 -21.5t-21.5 -52.5z" />
<glyph unicode="&#xc6;" horiz-adv-x="1533" d="M-27 0v182h95l436 1004h-119v180h1090v-442h-164q0 6 -1 15t-1 11l-9 115q-10 59 -34 82q-27 23 -160 22h-141v-383h8q68 0 89 20.5t32 96.5q2 23 12 70h139v-563h-139l-4 39l-10 67q-8 59 -26.5 76.5t-74.5 17.5h-26v-428h141q90 0 131 13q29 10 41 37.5t20 95.5l9 80 l4 63h164v-471h-859v182h101v144h-332l-66 -144h119v-182h-465zM457 516h260v653z" />
<glyph unicode="&#xc7;" horiz-adv-x="907" d="M57 678q0 324 107.5 517.5t286.5 193.5q121 0 211 -109v86h174v-457h-195q-18 158 -53 224.5t-101 66.5q-72 0 -104 -72q-66 -137 -66 -423q0 -242 47.5 -378.5t133.5 -136.5q88 0 116 115q18 72 27 225h229q-8 -164 -28.5 -248.5t-67.5 -156.5q-86 -123 -242 -143 l-10 -70q162 -27 162 -172q0 -78 -52 -132t-128 -54q-70 0 -112 43t-42 110v31h117v-17q0 -51 43 -51q23 0 37 16.5t14 43.5q0 39 -28.5 62.5t-77.5 23.5q-23 0 -41 -2l30 166q-176 14 -281.5 203.5t-105.5 494.5z" />
<glyph unicode="&#xc8;" horiz-adv-x="968" d="M51 0v184h101v1002h-101v180h860v-442h-163l-5 34l-6 74q-6 86 -39 113q-27 27 -166 26h-133v-383l23 3q57 2 73.5 22.5t26.5 101.5q0 6 4 26t6 34h148v-565h-148l-4 26l-6 62q-4 33 -10 63q-8 23 -25 37q-14 12 -59 12h-4h-25v-426h133q94 0 119 4q43 8 60.5 43 t25.5 131q8 86 11 111h163v-473h-860zM178 1804h236l239 -288h-202z" />
<glyph unicode="&#xc9;" horiz-adv-x="968" d="M51 0v184h101v1002h-101v180h860v-442h-163l-5 34l-6 74q-6 86 -39 113q-27 27 -166 26h-133v-383l23 3q57 2 73.5 22.5t26.5 101.5q0 6 4 26t6 34h148v-565h-148l-4 26l-6 62q-4 33 -10 63q-8 23 -25 37q-14 12 -59 12h-4h-25v-426h133q94 0 119 4q43 8 60.5 43 t25.5 131q8 86 11 111h163v-473h-860zM315 1516l240 288h236l-271 -288h-205z" />
<glyph unicode="&#xca;" horiz-adv-x="968" d="M51 0v184h101v1002h-101v180h860v-442h-163l-5 34l-6 74q-6 86 -39 113q-27 27 -166 26h-133v-383l23 3q57 2 73.5 22.5t26.5 101.5q0 6 4 26t6 34h148v-565h-148l-4 26l-6 62q-4 33 -10 63q-8 23 -25 37q-14 12 -59 12h-4h-25v-426h133q94 0 119 4q43 8 60.5 43 t25.5 131q8 86 11 111h163v-473h-860zM131 1489l260 315h187l262 -315h-195l-160 188l-161 -188h-193z" />
<glyph unicode="&#xcb;" horiz-adv-x="968" d="M51 0v184h101v1002h-101v180h860v-442h-163l-5 34l-6 74q-6 86 -39 113q-27 27 -166 26h-133v-383l23 3q57 2 73.5 22.5t26.5 101.5q0 6 4 26t6 34h148v-565h-148l-4 26l-6 62q-4 33 -10 63q-8 23 -25 37q-14 12 -59 12h-4h-25v-426h133q94 0 119 4q43 8 60.5 43 t25.5 131q8 86 11 111h163v-473h-860zM164 1642q0 53 40 90t97 37q55 0 94 -38.5t39 -94.5q0 -57 -39 -96t-94 -39q-57 0 -97 41t-40 100zM535 1632q0 57 38.5 98.5t94.5 41.5q57 0 97 -40t40 -95.5t-40 -95.5t-95.5 -40t-95 39t-39.5 92z" />
<glyph unicode="&#xcc;" horiz-adv-x="573" d="M-20 1804h235l242 -288h-205zM63 0v176h101v1010h-101v180h445v-180h-98v-1010h98v-176h-445z" />
<glyph unicode="&#xcd;" horiz-adv-x="573" d="M63 0v176h101v1010h-101v180h445v-180h-98v-1010h98v-176h-445zM117 1516l241 288h234l-270 -288h-205z" />
<glyph unicode="&#xce;" horiz-adv-x="573" d="M-33 1489l236 315h168l235 -315h-174l-145 188l-146 -188h-174zM63 0v176h101v1010h-101v180h445v-180h-98v-1010h98v-176h-445z" />
<glyph unicode="&#xcf;" horiz-adv-x="573" d="M-20 1642q0 53 39.5 90t97.5 37q55 0 94 -38.5t39 -94.5q0 -57 -39 -96t-94 -39q-57 0 -97 41t-40 100zM63 0v176h101v1010h-101v180h445v-180h-98v-1010h98v-176h-445zM324 1632q0 57 38.5 98.5t94 41.5t95.5 -40t40 -95.5t-39 -95.5t-96 -40q-55 0 -94 39t-39 92z" />
<glyph unicode="&#xd1;" horiz-adv-x="1046" d="M51 0v178h101v1010h-101v178h357l241 -690q4 -10 11.5 -32.5t12.5 -41t9 -31.5q14 -57 25 -116q-4 53 -7 75q0 33 -2 66v55v537h-104v178h414v-178h-101v-1188h-260l-239 672q0 2 -15 47q-18 72 -28 119q0 4 -4.5 18t-6.5 27q4 -53 4 -58q4 -86 4 -147v-500h103v-178 h-414zM252 1602q0 66 46 110.5t112 44.5q63 0 143 -43q39 -20 65 -20q14 0 27 12q12 10 12 25q0 10 -6 26h127q16 -47 17 -78q0 -66 -44 -110.5t-108 -44.5q-33 0 -51 8q-8 2 -60 24q-70 31 -102 31q-14 0 -24.5 -9t-10.5 -22q0 -10 8 -28h-139q-12 41 -12 74z" />
<glyph unicode="&#xd2;" d="M57 690q0 317 125 506.5t334 189.5q201 0 326 -190t125 -498q0 -334 -123 -527.5t-334 -193.5t-332 190.5t-121 522.5zM207 1804h233l242 -288h-205zM324 668q0 -225 49 -350t139 -125t141.5 133t51.5 370q0 229 -50.5 357.5t-140.5 128.5q-190 0 -190 -514z" />
<glyph unicode="&#xd3;" d="M57 690q0 317 125 506.5t334 189.5q201 0 326 -190t125 -498q0 -334 -123 -527.5t-334 -193.5t-332 190.5t-121 522.5zM324 668q0 -225 49 -350t139 -125t141.5 133t51.5 370q0 229 -50.5 357.5t-140.5 128.5q-190 0 -190 -514zM342 1516l242 288h233l-270 -288h-205z " />
<glyph unicode="&#xd4;" d="M57 690q0 317 125 506.5t334 189.5q201 0 326 -190t125 -498q0 -334 -123 -527.5t-334 -193.5t-332 190.5t-121 522.5zM158 1489l262 315h184l262 -315h-192l-162 188l-162 -188h-192zM324 668q0 -225 49 -350t139 -125t141.5 133t51.5 370q0 229 -50.5 357.5 t-140.5 128.5q-190 0 -190 -514z" />
<glyph unicode="&#xd5;" d="M57 690q0 317 125 506.5t334 189.5q201 0 326 -190t125 -498q0 -334 -123 -527.5t-334 -193.5t-332 190.5t-121 522.5zM242 1602q0 66 45 110.5t112 44.5q59 0 144 -43q39 -20 65 -20q14 0 27 12q10 10 10 25q0 10 -6 26h129q16 -47 16 -78q0 -66 -44 -110.5t-107 -44.5 q-33 0 -51 8q-14 4 -60 24q-72 31 -102 31q-35 0 -35 -31q0 -10 8 -28h-139q-12 41 -12 74zM324 668q0 -225 49 -350t139 -125t141.5 133t51.5 370q0 229 -50.5 357.5t-140.5 128.5q-190 0 -190 -514z" />
<glyph unicode="&#xd6;" d="M57 690q0 317 125 506.5t334 189.5q201 0 326 -190t125 -498q0 -334 -123 -527.5t-334 -193.5t-332 190.5t-121 522.5zM193 1642q0 53 38.5 90t96.5 37q55 0 94 -38.5t39 -94.5q0 -57 -39 -96t-92 -39q-57 0 -97 41t-40 100zM324 668q0 -225 49 -350t139 -125t141.5 133 t51.5 370q0 229 -50.5 357.5t-140.5 128.5q-190 0 -190 -514zM563 1632q0 57 39 98.5t94.5 41.5t95 -40t39.5 -95.5t-38.5 -95.5t-96.5 -40q-55 0 -94 39t-39 92z" />
<glyph unicode="&#xd8;" d="M57 686q0 319 125 509.5t334 190.5q147 0 266 -114l105 188l98 -55l-129 -231q111 -182 111 -484q0 -326 -124 -519.5t-331 -193.5q-154 0 -262 103l-96 -174l-95 57l117 211q-119 205 -119 512zM324 659q0 -88 10 -186l2 -8l321 579q-53 137 -143 138q-190 -1 -190 -523 zM377 309q51 -117 135 -116q90 0 141.5 132t51.5 367q0 82 -11 180l-2 7z" />
<glyph unicode="&#xd9;" horiz-adv-x="1011" d="M33 1192v174h444v-174h-100v-741q0 -20 1 -49t1 -37q0 -51 18 -95q14 -35 48 -57.5t75 -22.5q43 0 78 24t51 60q14 43 15 86v101v731h-97v174h412v-174h-100v-754q0 -156 -27 -231q-33 -104 -127 -167t-217 -63q-172 0 -277 111q-51 51 -73 125q-25 72 -25 236v743h-100z M213 1804h236l239 -288h-205z" />
<glyph unicode="&#xda;" horiz-adv-x="1011" d="M33 1192v174h444v-174h-100v-741q0 -20 1 -49t1 -37q0 -51 18 -95q14 -35 48 -57.5t75 -22.5q43 0 78 24t51 60q14 43 15 86v101v731h-97v174h412v-174h-100v-754q0 -156 -27 -231q-33 -104 -127 -167t-217 -63q-172 0 -277 111q-51 51 -73 125q-25 72 -25 236v743h-100z M350 1516l240 288h235l-270 -288h-205z" />
<glyph unicode="&#xdb;" horiz-adv-x="1011" d="M33 1192v174h444v-174h-100v-741q0 -20 1 -49t1 -37q0 -51 18 -95q14 -35 48 -57.5t75 -22.5q43 0 78 24t51 60q14 43 15 86v101v731h-97v174h412v-174h-100v-754q0 -156 -27 -231q-33 -104 -127 -167t-217 -63q-172 0 -277 111q-51 51 -73 125q-25 72 -25 236v743h-100z M164 1489l262 315h186l262 -315h-194l-160 188l-162 -188h-194z" />
<glyph unicode="&#xdc;" horiz-adv-x="1011" d="M33 1192v174h444v-174h-100v-741q0 -20 1 -49t1 -37q0 -51 18 -95q14 -35 48 -57.5t75 -22.5q43 0 78 24t51 60q14 43 15 86v101v731h-97v174h412v-174h-100v-754q0 -156 -27 -231q-33 -104 -127 -167t-217 -63q-172 0 -277 111q-51 51 -73 125q-25 72 -25 236v743h-100z M199 1642q0 53 40 90t97 37q55 0 94 -38.5t39 -94.5q0 -57 -39 -96t-94 -39q-57 0 -97 41t-40 100zM569 1632q0 57 39 98.5t94 41.5q57 0 97.5 -40t40.5 -95.5t-40 -95.5t-95 -40q-57 0 -96.5 39t-39.5 92z" />
<glyph unicode="&#xdd;" horiz-adv-x="933" d="M389 1509l135 324h182l-164 -324h-153zM-6 1186v180h428v-180h-96l149 -428l152 428h-95v180h406v-180h-82l-264 -684v-324h110v-178h-466v178h108v324l-264 684h-86z" />
<glyph unicode="&#xdf;" horiz-adv-x="968" d="M31 25v165q8 0 18 -2t14 -2q25 0 41 23q16 25 17 115v630q0 127 6 173.5t27 97.5q35 76 114.5 122t173.5 46q141 0 241.5 -94.5t100.5 -227.5q0 -162 -143 -270q285 -96 285 -383q0 -178 -108.5 -301t-266.5 -123q-61 0 -143 31v192q39 -29 86 -29q84 0 135 64.5 t51 171.5q0 100 -49 168q-37 47 -83 65.5t-140 26.5v164q152 31 151 188q0 78 -31.5 124t-83.5 46q-49 0 -70.5 -43t-21.5 -139v-700v-125q-4 -94 -55 -146q-53 -59 -137 -59q-53 0 -129 31z" />
<glyph unicode="&#xe0;" horiz-adv-x="839" d="M39 342q0 150 88 250t217 100q59 0 145 -45v21v34q0 70 -19 99.5t-64 29.5q-63 0 -93 -79h-225q20 123 102 187.5t218 64.5q156 0 243 -89q37 -37 51 -77q14 -31 16.5 -58.5t2.5 -132.5v-342l2 -55q0 -72 47 -72q12 0 39 17v-170q-61 -45 -115 -45q-80 0 -141 94 q-92 -94 -215 -94q-129 0 -214 103t-85 259zM193 1397h182l137 -324h-154zM272 342q0 -80 32 -127t85 -47q51 0 84 49t33 125q0 78 -32 126t-85 48t-85 -46t-32 -128z" />
<glyph unicode="&#xe1;" horiz-adv-x="839" d="M39 342q0 150 88 250t217 100q59 0 145 -45v21v34q0 70 -19 99.5t-64 29.5q-63 0 -93 -79h-225q20 123 102 187.5t218 64.5q156 0 243 -89q37 -37 51 -77q14 -31 16.5 -58.5t2.5 -132.5v-342l2 -55q0 -72 47 -72q12 0 39 17v-170q-61 -45 -115 -45q-80 0 -141 94 q-92 -94 -215 -94q-129 0 -214 103t-85 259zM272 342q0 -80 32 -127t85 -47q51 0 84 49t33 125q0 78 -32 126t-85 48t-85 -46t-32 -128zM330 1073l135 324h182l-164 -324h-153z" />
<glyph unicode="&#xe2;" horiz-adv-x="839" d="M39 342q0 150 88 250t217 100q59 0 145 -45v21v34q0 70 -19 99.5t-64 29.5q-63 0 -93 -79h-225q20 123 102 187.5t218 64.5q156 0 243 -89q37 -37 51 -77q14 -31 16.5 -58.5t2.5 -132.5v-342l2 -55q0 -72 47 -72q12 0 39 17v-170q-61 -45 -115 -45q-80 0 -141 94 q-92 -94 -215 -94q-129 0 -214 103t-85 259zM152 1073l180 322h176l182 -322h-158l-110 191l-115 -191h-155zM272 342q0 -80 32 -127t85 -47q51 0 84 49t33 125q0 78 -32 126t-85 48t-85 -46t-32 -128z" />
<glyph unicode="&#xe3;" horiz-adv-x="839" d="M39 342q0 150 88 250t217 100q59 0 145 -45v21v34q0 70 -19 99.5t-64 29.5q-63 0 -93 -79h-225q20 123 102 187.5t218 64.5q156 0 243 -89q37 -37 51 -77q14 -31 16.5 -58.5t2.5 -132.5v-342l2 -55q0 -72 47 -72q12 0 39 17v-170q-61 -45 -115 -45q-80 0 -141 94 q-92 -94 -215 -94q-129 0 -214 103t-85 259zM166 1194q0 61 43 103t106 42q55 0 134 -41q41 -20 61 -20q12 0 25 12q12 8 12 23q0 10 -6 26h118q16 -37 17 -73q0 -61 -41 -103.5t-103 -42.5q-29 0 -47 8q-25 8 -55 23q-68 29 -96 29q-35 0 -35 -29q0 -2 8 -27h-129 q-12 39 -12 70zM272 342q0 -80 32 -127t85 -47q51 0 84 49t33 125q0 78 -32 126t-85 48t-85 -46t-32 -128z" />
<glyph unicode="&#xe4;" horiz-adv-x="839" d="M39 342q0 150 88 250t217 100q59 0 145 -45v21v34q0 70 -19 99.5t-64 29.5q-63 0 -93 -79h-225q20 123 102 187.5t218 64.5q156 0 243 -89q37 -37 51 -77q14 -31 16.5 -58.5t2.5 -132.5v-342l2 -55q0 -72 47 -72q12 0 39 17v-170q-61 -45 -115 -45q-80 0 -141 94 q-92 -94 -215 -94q-129 0 -214 103t-85 259zM119 1231q0 49 38 84t91 35q51 0 88 -36t37 -89.5t-37 -90t-88 -36.5q-53 0 -91 39t-38 94zM272 342q0 -80 32 -127t85 -47q51 0 84 49t33 125q0 78 -32 126t-85 48t-85 -46t-32 -128zM467 1223q0 53 37 91t88 38q53 0 91 -37 t38 -90q0 -51 -37 -88t-90 -37t-90 36t-37 87z" />
<glyph unicode="&#xe5;" horiz-adv-x="839" d="M39 342q0 150 88 250t217 100q59 0 145 -45v21v34q0 70 -19 99.5t-64 29.5q-63 0 -93 -79h-225q20 123 102 187.5t218 64.5q156 0 243 -89q37 -37 51 -77q14 -31 16.5 -58.5t2.5 -132.5v-342l2 -55q0 -72 47 -72q12 0 39 17v-170q-61 -45 -115 -45q-80 0 -141 94 q-92 -94 -215 -94q-129 0 -214 103t-85 259zM233 1245q0 78 55.5 133.5t135.5 55.5q76 0 129 -53.5t55 -129.5q0 -80 -53 -136t-129 -56q-80 0 -136.5 54t-56.5 132zM272 342q0 -80 32 -127t85 -47q51 0 84 49t33 125q0 78 -32 126t-85 48t-85 -46t-32 -128zM350 1247.5 q0 -28.5 20.5 -49t49.5 -20.5t50.5 21.5t21.5 51.5q-2 27 -21.5 46.5t-48.5 19.5q-31 0 -51.5 -20.5t-20.5 -49z" />
<glyph unicode="&#xe6;" horiz-adv-x="1245" d="M39 342q0 152 86 251t217 99q68 0 145 -47v29q0 88 -17 122.5t-64 34.5q-63 0 -93 -81h-227q49 254 313 254q82 0 152 -29q35 -18 74 -53q94 82 211 82q160 0 263 -141.5t103 -360.5q0 -29 -2 -56h-479q-2 -129 31.5 -205.5t93.5 -76.5q98 0 108 201h246 q-20 -172 -118.5 -278.5t-241.5 -106.5q-147 0 -252 116q-115 -117 -248 -116q-131 0 -216 102t-85 260zM272 340q0 -78 33 -125t84 -47t83 48t32 124q0 82 -31 129t-84 47t-85 -47t-32 -129zM727 623h225q-14 197 -118 196q-101 1 -107 -196z" />
<glyph unicode="&#xe7;" horiz-adv-x="745" d="M45 496q0 219 90 363.5t227 144.5q84 0 164 -91v66h179v-344h-179q-14 94 -39.5 135t-72.5 41q-57 0 -91 -86t-34 -229q0 -147 32.5 -233.5t88.5 -86.5q102 0 102 230h209v-31q0 -176 -76 -278.5t-213 -116.5l-10 -58q145 -23 145 -153q0 -70 -46 -118t-113 -48 q-61 0 -100.5 37.5t-39.5 97.5q0 4 1 13t1 16h105q-2 -8 -2 -15q0 -47 41 -47q45 0 45 55q0 35 -25.5 55.5t-71.5 20.5q-2 0 -14 -1t-22 -1l28 150q-137 20 -223 163.5t-86 348.5z" />
<glyph unicode="&#xe8;" horiz-adv-x="811" d="M45 496q0 227 98.5 367.5t259.5 140.5q178 0 277 -166q84 -135 86 -389h-481q10 -285 127 -285q47 0 77.5 52t30.5 132v17h234q-4 -182 -92.5 -283.5t-243.5 -101.5q-176 0 -274.5 137t-98.5 379zM178 1397h182l138 -324h-156zM295 621h227q-8 104 -35.5 150t-83.5 46 q-102 1 -108 -196z" />
<glyph unicode="&#xe9;" horiz-adv-x="811" d="M45 496q0 227 98.5 367.5t259.5 140.5q178 0 277 -166q84 -135 86 -389h-481q10 -285 127 -285q47 0 77.5 52t30.5 132v17h234q-4 -182 -92.5 -283.5t-243.5 -101.5q-176 0 -274.5 137t-98.5 379zM295 621h227q-8 104 -35.5 150t-83.5 46q-102 1 -108 -196zM315 1073 l136 324h182l-164 -324h-154z" />
<glyph unicode="&#xea;" horiz-adv-x="811" d="M45 496q0 227 98.5 367.5t259.5 140.5q178 0 277 -166q84 -135 86 -389h-481q10 -285 127 -285q47 0 77.5 52t30.5 132v17h234q-4 -182 -92.5 -283.5t-243.5 -101.5q-176 0 -274.5 137t-98.5 379zM137 1073l180 322h177l180 -322h-156l-112 191l-113 -191h-156zM295 621 h227q-8 104 -35.5 150t-83.5 46q-102 1 -108 -196z" />
<glyph unicode="&#xeb;" horiz-adv-x="811" d="M45 496q0 227 98.5 367.5t259.5 140.5q178 0 277 -166q84 -135 86 -389h-481q10 -285 127 -285q47 0 77.5 52t30.5 132v17h234q-4 -182 -92.5 -283.5t-243.5 -101.5q-176 0 -274.5 137t-98.5 379zM104 1231q0 49 38 84t91 35q51 0 88 -37t37 -88q0 -53 -36.5 -90 t-88.5 -37q-53 0 -91 39t-38 94zM295 621h227q-8 104 -35.5 150t-83.5 46q-102 1 -108 -196zM453 1223q0 53 36.5 91t88.5 38q53 0 91 -37t38 -90q0 -51 -37 -88t-90.5 -37t-90 36t-36.5 87z" />
<glyph unicode="&#xec;" horiz-adv-x="479" d="M12 1397h183l137 -324h-156zM39 0v166h86v651h-86v166h319v-817h86v-166h-405z" />
<glyph unicode="&#xed;" horiz-adv-x="479" d="M39 0v166h86v651h-86v166h319v-817h86v-166h-405zM150 1073l135 324h182l-164 -324h-153z" />
<glyph unicode="&#xee;" horiz-adv-x="479" d="M-29 1073l181 322h176l180 -322h-156l-112 191l-113 -191h-156zM39 0v166h86v651h-86v166h319v-817h86v-166h-405z" />
<glyph unicode="&#xef;" horiz-adv-x="479" d="M-31 1231q0 45 34 75.5t81 30.5t80 -32.5t33 -79.5t-33 -80t-80 -33t-81 35t-34 84zM39 0v166h86v651h-86v166h319v-817h86v-166h-405zM283 1223q0 49 32.5 82.5t79.5 33.5t81 -33.5t34 -80.5t-34 -80t-81 -33t-79.5 32t-32.5 79z" />
<glyph unicode="&#xf1;" horiz-adv-x="899" d="M39 0v166h88v651h-88v166h321v-65q70 86 175 86q117 0 188 -91q33 -39 47 -92q10 -51 10 -198v-310q0 -92 8 -118q6 -37 43 -37q14 0 37 8v-166q-68 -20 -131 -20q-55 0 -101 29.5t-67 76.5q-16 39 -20 104v117v279q0 106 -10 141q-14 63 -78 64q-53 0 -77 -47.5 t-24 -155.5v-422h84v-166h-405zM195 1194q0 61 43 103t106 42q57 0 133 -41q45 -20 64 -20q12 0 24 12q10 10 10 23q0 10 -6 26h121q14 -39 15 -73q0 -61 -41 -103.5t-101 -42.5q-31 0 -49 8q-25 8 -55 23q-68 29 -97 29q-33 0 -32 -29q0 -10 8 -27h-131q-12 39 -12 70z" />
<glyph unicode="&#xf2;" horiz-adv-x="817" d="M43 489q0 231 100.5 373t266.5 142q162 0 260 -131.5t102 -354.5v-22q0 -231 -100.5 -373.5t-263.5 -142.5q-162 0 -263.5 141t-101.5 368zM180 1397h182l138 -324h-154zM291 483q0 -152 30.5 -235.5t86.5 -83.5q53 0 85.5 91t32.5 245q0 150 -30.5 233.5t-85.5 83.5 q-53 0 -86 -92t-33 -242z" />
<glyph unicode="&#xf3;" horiz-adv-x="817" d="M43 489q0 231 100.5 373t266.5 142q162 0 260 -131.5t102 -354.5v-22q0 -231 -100.5 -373.5t-263.5 -142.5q-162 0 -263.5 141t-101.5 368zM291 483q0 -152 30.5 -235.5t86.5 -83.5q53 0 85.5 91t32.5 245q0 150 -30.5 233.5t-85.5 83.5q-53 0 -86 -92t-33 -242z M317 1073l138 324h182l-166 -324h-154z" />
<glyph unicode="&#xf4;" horiz-adv-x="817" d="M43 489q0 231 100.5 373t266.5 142q162 0 260 -131.5t102 -354.5v-22q0 -231 -100.5 -373.5t-263.5 -142.5q-162 0 -263.5 141t-101.5 368zM139 1073l183 322h174l182 -322h-156l-112 191l-115 -191h-156zM291 483q0 -152 30.5 -235.5t86.5 -83.5q53 0 85.5 91t32.5 245 q0 150 -30.5 233.5t-85.5 83.5q-53 0 -86 -92t-33 -242z" />
<glyph unicode="&#xf5;" horiz-adv-x="817" d="M43 489q0 231 100.5 373t266.5 142q162 0 260 -131.5t102 -354.5v-22q0 -231 -100.5 -373.5t-263.5 -142.5q-162 0 -263.5 141t-101.5 368zM154 1194q0 61 43 103t106 42q57 0 133 -41q45 -20 64 -20q12 0 24 12q10 10 11 23q0 10 -7 26h121q14 -39 15 -73 q0 -61 -41 -103.5t-101 -42.5q-31 0 -49 8q-25 8 -55 23q-68 29 -96 29q-33 0 -33 -29q0 -10 8 -27h-131q-12 39 -12 70zM291 483q0 -152 30.5 -235.5t86.5 -83.5q53 0 85.5 91t32.5 245q0 150 -30.5 233.5t-85.5 83.5q-53 0 -86 -92t-33 -242z" />
<glyph unicode="&#xf6;" horiz-adv-x="817" d="M43 489q0 231 100.5 373t266.5 142q162 0 260 -131.5t102 -354.5v-22q0 -231 -100.5 -373.5t-263.5 -142.5q-162 0 -263.5 141t-101.5 368zM109 1231q0 49 36.5 84t90.5 35q51 0 87.5 -36t36.5 -89.5t-36.5 -90t-87.5 -36.5q-53 0 -90 39t-37 94zM291 483 q0 -152 30.5 -235.5t86.5 -83.5q53 0 85.5 91t32.5 245q0 150 -30.5 233.5t-85.5 83.5q-53 0 -86 -92t-33 -242zM455 1223q0 53 36.5 91t90 38t90.5 -37t37 -90q0 -51 -37 -88t-90.5 -37t-90 36t-36.5 87z" />
<glyph unicode="&#xf8;" horiz-adv-x="817" d="M45 492q0 231 100.5 371.5t264.5 140.5q113 0 202 -72l72 127l76 -45l-86 -148q45 -55 71.5 -156.5t26.5 -213.5q0 -231 -100.5 -373.5t-263.5 -142.5q-115 0 -203 75l-78 -131l-70 47l86 152q-98 133 -98 369zM291 479q0 -61 4 -90v-6l201 348q-29 86 -86 86 q-53 0 -86 -93t-33 -245zM319 252q25 -88 89 -88q55 0 86.5 91t31.5 247q0 59 -4 102z" />
<glyph unicode="&#xf9;" horiz-adv-x="892" d="M31 817v166h321v-545q0 -158 8 -188q16 -61 82 -62q63 0 84 58q12 33 13 153v418h-86v166h321v-600q0 -109 2 -133q4 -63 45 -64q4 0 7 1t12.5 2t21.5 4v-166q-66 -37 -119 -37q-82 0 -139 88q-98 -98 -219 -98q-119 0 -192.5 74.5t-73.5 195.5v94v473h-88zM219 1397h182 l138 -324h-156z" />
<glyph unicode="&#xfa;" horiz-adv-x="892" d="M31 817v166h321v-545q0 -158 8 -188q16 -61 82 -62q63 0 84 58q12 33 13 153v418h-86v166h321v-600q0 -109 2 -133q4 -63 45 -64q4 0 7 1t12.5 2t21.5 4v-166q-66 -37 -119 -37q-82 0 -139 88q-98 -98 -219 -98q-119 0 -192.5 74.5t-73.5 195.5v94v473h-88zM356 1073 l136 324h182l-164 -324h-154z" />
<glyph unicode="&#xfb;" horiz-adv-x="892" d="M31 817v166h321v-545q0 -158 8 -188q16 -61 82 -62q63 0 84 58q12 33 13 153v418h-86v166h321v-600q0 -109 2 -133q4 -63 45 -64q4 0 7 1t12.5 2t21.5 4v-166q-66 -37 -119 -37q-82 0 -139 88q-98 -98 -219 -98q-119 0 -192.5 74.5t-73.5 195.5v94v473h-88zM178 1073 l180 322h177l180 -322h-156l-113 191l-112 -191h-156z" />
<glyph unicode="&#xfc;" horiz-adv-x="892" d="M31 817v166h321v-545q0 -158 8 -188q16 -61 82 -62q63 0 84 58q12 33 13 153v418h-86v166h321v-600q0 -109 2 -133q4 -63 45 -64q4 0 7 1t12.5 2t21.5 4v-166q-66 -37 -119 -37q-82 0 -139 88q-98 -98 -219 -98q-119 0 -192.5 74.5t-73.5 195.5v94v473h-88zM145 1231 q0 49 38 84t91 35q51 0 88 -37t37 -88q0 -53 -36.5 -90t-88.5 -37q-53 0 -91 39t-38 94zM494 1223q0 53 36.5 91t87.5 38q53 0 91.5 -37t38.5 -90q0 -51 -37 -88t-90.5 -37t-90 36t-36.5 87z" />
<glyph unicode="&#xfd;" horiz-adv-x="811" d="M328 1126l135 324h182l-164 -324h-153zM-10 811v168h268l131 -395l17 -52q6 -16 12 -43q10 -37 14 -77q4 45 10 65l13 45l10 39l72 250h-101v168h385l-307 -1022q-49 -166 -88 -223q-61 -88 -184 -88q-59 0 -119 24v189q37 -14 55 -15q37 0 60.5 31t44.5 102l39 129 l-250 705h-82z" />
<glyph unicode="&#xff;" horiz-adv-x="811" d="M-10 811v168h268l131 -395l17 -52q6 -16 12 -43q10 -37 14 -77q4 45 10 65l13 45l10 39l72 250h-101v168h385l-307 -1022q-49 -166 -88 -223q-61 -88 -184 -88q-59 0 -119 24v189q37 -14 55 -15q37 0 60.5 31t44.5 102l39 129l-250 705h-82zM104 1231q0 49 37 84t90.5 35 t90 -37t36.5 -88t-36.5 -89t-88.5 -38q-53 0 -91 39t-38 94zM453 1223q0 53 36.5 91t88.5 38q53 0 91 -37t38 -90q0 -51 -37 -88t-90.5 -37t-90 36t-36.5 87z" />
<glyph unicode="&#x152;" horiz-adv-x="1488" d="M57 666q0 326 128 524.5t339 198.5q45 0 138 -23h768v-442h-164q-12 164 -33 202q-23 43 -94 45l-82 3h-142v-383q10 -2 23 -3q43 0 63.5 13.5t30.5 48.5q16 61 25 127h137v-567h-137q0 12 -3 32.5t-3 26.5q-10 94 -28.5 119.5t-74.5 25.5q-16 0 -33 -2v-424h158 q119 0 146 35q20 29 34 160l13 90h164v-473h-797q-94 -23 -135 -23q-203 0 -322 186t-119 503zM324 653q0 -463 186 -463q68 0 113 68t63.5 171t18.5 290q0 463 -185 463q-94 0 -145 -139.5t-51 -389.5z" />
<glyph unicode="&#x153;" horiz-adv-x="1286" d="M45 492q0 236 100.5 374t272.5 138q57 0 110 -19q59 -20 121 -86q106 104 236 105q162 0 260 -142.5t98 -374.5v-38h-483q12 -285 133 -285q45 0 74.5 53t29.5 131v17h246q-8 -184 -100 -284.5t-250 -100.5q-139 0 -244 98q-106 -98 -233 -98q-174 0 -272.5 136 t-98.5 376zM289 477q0 -143 33.5 -228t89.5 -85q57 0 90 90t33 252q0 150 -31 231.5t-88.5 81.5t-92 -94t-34.5 -248zM772 621h227q-16 203 -116 202q-107 1 -111 -202z" />
<glyph unicode="&#x178;" horiz-adv-x="933" d="M-6 1186v180h428v-180h-96l149 -428l152 428h-95v180h406v-180h-82l-264 -684v-324h110v-178h-466v178h108v324l-264 684h-86zM154 1642q0 51 39.5 89t95 38t95.5 -38.5t40 -94.5q0 -57 -39 -96t-94 -39q-57 0 -97 41t-40 100zM524 1632q0 57 39 98.5t94 41.5 q57 0 96.5 -40t39.5 -95.5t-39 -95.5t-97 -40q-55 0 -94 39t-39 92z" />
<glyph unicode="&#x2c6;" d="M244 1073l180 322h176l180 -322h-155l-113 191l-113 -191h-155z" />
<glyph unicode="&#x2dc;" d="M256 1194q0 61 44 103t108 42q55 0 133 -41q41 -20 61 -20q12 0 25 12q12 8 12 23q0 4 -3 13t-3 13h119q16 -43 16 -73q0 -61 -41 -103.5t-102 -42.5q-29 0 -47 8q-25 8 -56 23q-70 29 -98 29q-12 0 -22.5 -8.5t-10.5 -20.5q0 -10 8 -27h-129q-14 45 -14 70z" />
<glyph unicode="&#x2000;" horiz-adv-x="929" />
<glyph unicode="&#x2001;" horiz-adv-x="1859" />
<glyph unicode="&#x2002;" horiz-adv-x="929" />
<glyph unicode="&#x2003;" horiz-adv-x="1859" />
<glyph unicode="&#x2004;" horiz-adv-x="618" />
<glyph unicode="&#x2005;" horiz-adv-x="464" />
<glyph unicode="&#x2006;" horiz-adv-x="309" />
<glyph unicode="&#x2007;" horiz-adv-x="309" />
<glyph unicode="&#x2008;" horiz-adv-x="231" />
<glyph unicode="&#x2009;" horiz-adv-x="370" />
<glyph unicode="&#x200a;" horiz-adv-x="102" />
<glyph unicode="&#x2010;" horiz-adv-x="350" d="M0 436v191h350v-191h-350z" />
<glyph unicode="&#x2011;" horiz-adv-x="350" d="M0 436v191h350v-191h-350z" />
<glyph unicode="&#x2012;" horiz-adv-x="350" d="M0 436v191h350v-191h-350z" />
<glyph unicode="&#x2013;" d="M0 436v191h1024v-191h-1024z" />
<glyph unicode="&#x2014;" horiz-adv-x="722" d="M35 436v191h655v-191h-655z" />
<glyph unicode="&#x2018;" horiz-adv-x="442" d="M82 1079q0 74 49 172q39 72 90 135h84q-33 -57 -47 -86q-18 -47 -18 -77q0 -29 34 -45l37 -19q49 -29 49 -100q0 -61 -36.5 -100t-96.5 -39q-63 0 -104 45.5t-41 113.5z" />
<glyph unicode="&#x2019;" horiz-adv-x="442" d="M82 1247q0 61 38 100t95 39q63 0 104 -45t41 -114q0 -80 -49 -170q-33 -63 -90 -137h-84q29 49 47 88q18 37 19 75q0 29 -35 45l-37 19q-49 32 -49 100z" />
<glyph unicode="&#x201c;" horiz-adv-x="811" d="M82 1079q0 74 49 172q39 72 90 135h84q-33 -57 -47 -86q-18 -47 -18 -77q0 -29 34 -45l37 -19q49 -29 49 -100q0 -61 -36.5 -100t-96.5 -39q-63 0 -104 45.5t-41 113.5zM451 1079q0 74 49 172q31 59 90 135h84q-33 -57 -47 -86q-18 -39 -19 -77q0 -29 35 -45l37 -19 q49 -29 49 -100q0 -61 -38 -100t-97 -39q-61 0 -102 45.5t-41 113.5z" />
<glyph unicode="&#x201d;" horiz-adv-x="811" d="M82 1247q0 61 38 100t95 39q63 0 104 -45t41 -114q0 -80 -49 -170q-33 -63 -90 -137h-84q29 49 47 88q18 37 19 75q0 29 -35 45l-37 19q-49 32 -49 100zM451 1247q0 61 37.5 100t97.5 39q61 0 102 -45t41 -114q0 -76 -49 -170q-27 -55 -90 -137h-84q29 49 47 88 q18 37 18 75q0 29 -34 45l-37 19q-49 32 -49 100z" />
<glyph unicode="&#x201e;" horiz-adv-x="811" d="M82 135q0 59 38 99t95 40q63 0 104 -46t41 -115q0 -78 -49 -170q-33 -63 -90 -138h-84q33 59 47 89q18 37 19 75q0 29 -35 45q-29 14 -37 21q-49 28 -49 100zM451 135q0 59 38.5 99t96.5 40q61 0 102 -46t41 -115q0 -76 -49 -170q-27 -55 -90 -138h-84q33 59 47 89 q18 37 18 75q0 29 -34 45q-29 14 -37 21q-49 28 -49 100z" />
<glyph unicode="&#x2022;" horiz-adv-x="1366" d="M401 696.5q0 118.5 83 202.5t200 84q115 0 198 -84t83 -202.5t-83 -202.5t-198 -84q-117 0 -200 84t-83 202.5z" />
<glyph unicode="&#x2026;" horiz-adv-x="1439" d="M82 131.5q0 63.5 46 109.5t109.5 46t107.5 -45t44 -108.5t-44 -110t-107.5 -46.5t-109.5 45.5t-46 109zM561 131.5q0 63.5 47 109.5t111 46q61 0 106 -45t45 -108.5t-45 -110t-108.5 -46.5t-109.5 45.5t-46 109zM1042 131.5q0 63.5 46.5 109.5t110 46t107.5 -45 t44 -108.5t-44 -110t-107.5 -46.5t-110 45.5t-46.5 109z" />
<glyph unicode="&#x202f;" horiz-adv-x="370" />
<glyph unicode="&#x2039;" horiz-adv-x="481" d="M55 141l148 385l-148 381h148l209 -381l-209 -385h-148z" />
<glyph unicode="&#x203a;" horiz-adv-x="481" d="M68 141l149 385l-149 381h149l209 -381l-209 -385h-149z" />
<glyph unicode="&#x2044;" horiz-adv-x="69" d="M-412 45l805 1321l88 -51l-805 -1323z" />
<glyph unicode="&#x205f;" horiz-adv-x="464" />
<glyph unicode="&#x2122;" horiz-adv-x="2273" d="M954 0v180h101v1008h-101v178h453l147 -711q4 -18 12.5 -59t10.5 -47q8 -61 12 -96q2 14 12 82l7 38l18 82l162 711h432v-178h-98v-1008h98v-180h-412v180h86v604q0 80 2 136q0 47 2 84q-8 -59 -16 -107q-27 -147 -41 -211l-154 -686h-223l-164 764q-6 31 -12 55 q-14 82 -20 133l-7 47l2 -47q2 -39 2 -116v-84v-572h80v-180h-391zM31 922v444h841v-444h-163l-7 59l-8 72q-6 66 -30 94q-20 20 -89 24v-993h109v-178h-471v178h115v993h-21q-53 0 -73.5 -30.5t-28.5 -122.5l-6 -64l-2 -32h-166z" />
<glyph unicode="&#xe000;" horiz-adv-x="980" d="M0 980h980v-980h-980v980z" />
<glyph unicode="&#xfb01;" horiz-adv-x="985" d="M39 0v166h88v649h-88v166h88v102q0 84 5 118t26 73q27 47 77 76.5t107 29.5t143 -43v-174q-43 18 -59 19q-63 0 -64 -117v-84h123v-166h-123v-649h87v-166h-410zM547 0v166h86v651h-86v166h319v-817h86v-166h-405zM596 1224.5q0 59.5 43 100.5t104 41q59 0 100.5 -42 t41.5 -101q0 -61 -43 -104.5t-105 -41.5q-59 2 -100 45t-41 102.5z" />
<glyph unicode="&#xfb02;" horiz-adv-x="987" d="M39 0v166h88v649h-88v166h88v102q0 84 5 118t26 73q27 47 77 76.5t107 29.5t143 -43v-174q-43 18 -59 19q-63 0 -64 -117v-84h123v-166h-123v-649h87v-166h-410zM547 0v164h86v1030h-86v172h321v-1202h86v-164h-407z" />
<glyph unicode="&#xfb03;" horiz-adv-x="1492" d="M1055 0v166h86v651h-86v166h319v-817h86v-166h-405zM1104 1224.5q0 59.5 43 100.5t105 41q59 0 100 -42t41 -101q0 -61 -43 -105q-41 -41 -99 -41h-6q-59 2 -100 45t-41 102.5zM547 0v166h88v649h-88v166h88v102q0 84 5 118t26 73q27 47 77 76.5t107 29.5t143 -43v-174 q-43 18 -59 19q-63 0 -64 -117v-84h123v-166h-123v-649h87v-166h-410zM39 0v166h88v649h-88v166h88v102q0 84 5 118t26 73q27 47 77 76.5t107 29.5t143 -43v-174q-43 18 -59 19q-63 0 -64 -117v-84h123v-166h-123v-649h87v-166h-410z" />
<glyph unicode="&#xfb04;" horiz-adv-x="1495" d="M1055 0v164h86v1030h-86v172h321v-1202h86v-164h-407zM547 0v166h88v649h-88v166h88v102q0 84 5 118t26 73q27 47 77 76.5t107 29.5t143 -43v-174q-43 18 -59 19q-63 0 -64 -117v-84h123v-166h-123v-649h87v-166h-410zM39 0v166h88v649h-88v166h88v102q0 84 5 118t26 73 q27 47 77 76.5t107 29.5t143 -43v-174q-43 18 -59 19q-63 0 -64 -117v-84h123v-166h-123v-649h87v-166h-410z" />
</font>
</defs>
</svg>
